<svg xmlns="http://www.w3.org/2000/svg" viewBox="0 0 200 200">
  <rect width="200" height="200" fill="#FFF"/>
  <g fill="#00293D">
    <rect x="10" y="10" width="50" height="50"/>
    <rect x="20" y="20" width="30" height="30" fill="#FFF"/>
    <rect x="28" y="28" width="14" height="14"/>
    <rect x="140" y="10" width="50" height="50"/>
    <rect x="150" y="20" width="30" height="30" fill="#FFF"/>
    <rect x="158" y="28" width="14" height="14"/>
    <rect x="10" y="140" width="50" height="50"/>
    <rect x="20" y="150" width="30" height="30" fill="#FFF"/>
    <rect x="28" y="158" width="14" height="14"/>
    <rect x="72" y="12" width="12" height="12"/>
    <rect x="92" y="24" width="12" height="12"/>
    <rect x="112" y="12" width="12" height="12"/>
    <rect x="80" y="44" width="12" height="12"/>
    <rect x="100" y="56" width="12" height="12"/>
    <rect x="120" y="44" width="12" height="12"/>
    <rect x="72" y="76" width="12" height="12"/>
    <rect x="92" y="88" width="12" height="12"/>
    <rect x="112" y="76" width="12" height="12"/>
    <rect x="80" y="108" width="12" height="12"/>
    <rect x="100" y="120" width="12" height="12"/>
    <rect x="120" y="108" width="12" height="12"/>
    <rect x="72" y="140" width="12" height="12"/>
    <rect x="92" y="152" width="12" height="12"/>
    <rect x="112" y="140" width="12" height="12"/>
    <rect x="140" y="80" width="12" height="12"/>
    <rect x="160" y="100" width="12" height="12"/>
    <rect x="140" y="120" width="12" height="12"/>
    <rect x="160" y="140" width="12" height="12"/>
    <rect x="140" y="160" width="12" height="12"/>
    <rect x="176" y="176" width="14" height="14"/>
  </g>
</svg>
